<?xml version="1.0" encoding="utf-8"?>
<!-- Generator: Adobe Illustrator 17.0.0, SVG Export Plug-In . SVG Version: 6.00 Build 0)  -->
<!DOCTYPE svg PUBLIC "-//W3C//DTD SVG 1.1//EN" "http://www.w3.org/Graphics/SVG/1.1/DTD/svg11.dtd">
<svg version="1.1" id="Layer_1" xmlns="http://www.w3.org/2000/svg" xmlns:xlink="http://www.w3.org/1999/xlink" x="0px" y="0px"
	 width="50px" height="50px" viewBox="0 0 50 50" enable-background="new 0 0 50 50" xml:space="preserve">
<path id="White_2_" fill="#B3B4B4" d="M47.111,0.145H2.889c-1.515,0-2.744,1.228-2.744,2.744v44.223
	c0,1.515,1.228,2.744,2.744,2.744h23.808v-19.25h-6.478v-7.502h6.478V17.57c0-6.421,3.921-9.917,9.649-9.917
	c2.744,0,5.102,0.204,5.789,0.296v6.71l-3.972,0.002c-3.115,0-3.718,1.48-3.718,3.652v4.79h7.429l-0.967,7.502h-6.462v19.25h12.667
	c1.515,0,2.744-1.228,2.744-2.744V2.889C49.855,1.373,48.626,0.145,47.111,0.145z"/>
</svg>
