<?xml version="1.0" encoding="utf-8"?>
<!-- Generator: Adobe Illustrator 17.0.0, SVG Export Plug-In . SVG Version: 6.00 Build 0)  -->
<!DOCTYPE svg PUBLIC "-//W3C//DTD SVG 1.1//EN" "http://www.w3.org/Graphics/SVG/1.1/DTD/svg11.dtd">
<svg version="1.1" id="Layer_1" xmlns="http://www.w3.org/2000/svg" xmlns:xlink="http://www.w3.org/1999/xlink" x="0px" y="0px"
	 width="63.002px" height="63.002px" viewBox="0 0 63.002 63.002" enable-background="new 0 0 63.002 63.002" xml:space="preserve">
<g>
	<g>
		<defs>
			<rect id="SVGID_1_" x="0" y="0" width="63.002" height="63.002"/>
		</defs>
		<clipPath id="SVGID_2_">
			<use xlink:href="#SVGID_1_"  overflow="visible"/>
		</clipPath>
		<path clip-path="url(#SVGID_2_)" fill="#B3B3B3" d="M55.639,26.606h-5.475c0.399,1.549,0.635,3.167,0.635,4.84
			c0,10.689-8.664,19.352-19.351,19.352s-19.351-8.663-19.351-19.352c0-1.673,0.237-3.291,0.636-4.84H7.256v26.611
			c0,1.334,1.083,2.417,2.421,2.417h43.54c1.338,0,2.421-1.083,2.421-2.417L55.639,26.606L55.639,26.606z M55.639,9.674
			c0-1.335-1.083-2.419-2.421-2.419h-7.256c-1.336,0-2.419,1.083-2.419,2.419v7.258c0,1.335,1.082,2.419,2.419,2.419h7.256
			c1.338,0,2.421-1.083,2.421-2.419V9.674z M31.447,19.351c-6.68,0-12.095,5.414-12.095,12.095c0,6.679,5.415,12.096,12.095,12.096
			s12.096-5.417,12.096-12.096C43.543,24.765,38.128,19.351,31.447,19.351 M55.639,62.894H7.256C3.249,62.894,0,59.644,0,55.635
			V7.256C0,3.248,3.249,0,7.256,0h48.383c4.007,0,7.256,3.248,7.256,7.256v48.379C62.895,59.644,59.646,62.894,55.639,62.894"/>
	</g>
</g>
</svg>
